<?xml version='1.0' encoding='UTF-8'?>
<!DOCTYPE score-partwise PUBLIC "-//Recordare//DTD MusicXML 3.0 Partwise//EN" "http://www.musicxml.org/dtds/partwise.dtd">
<score-partwise version="4.0">
  <identification>
    <encoding>
      <supports element="accidental" type="yes"/>
      <supports element="transpose" type="yes"/>
      <software>Soundslice MusicXML exporter</software>
      <encoding-date>2026-02-10</encoding-date>
    </encoding>
  </identification>
  <part-list>
    <score-part id="P1">
      <part-name>Part</part-name>
    </score-part>
  </part-list>
  <part id="P1">
    <measure number="1">
      <attributes>
        <divisions>48</divisions>
        <key>
          <fifths>-3</fifths>
          <mode>major</mode>
        </key>
        <time>
          <beats>3</beats>
          <beat-type>4</beat-type>
        </time>
        <clef>
          <sign>G</sign>
          <line>2</line>
        </clef>
      </attributes>
      <direction placement="above">
        <direction-type>
          <metronome>
            <beat-unit>quarter</beat-unit>
            <per-minute>76</per-minute>
          </metronome>
        </direction-type>
      </direction>
      <note>
        <pitch>
          <step>G</step>
          <octave>4</octave>
        </pitch>
        <duration>96</duration>
        <type>half</type>
        <stem>up</stem>
        <lyric number="1">
          <syllabic>single</syllabic>
          <text>La</text>
        </lyric>
        <lyric number="2">
          <syllabic>single</syllabic>
          <text>Cach</text>
        </lyric>
      </note>
      <note>
        <pitch>
          <step>F</step>
          <octave>4</octave>
        </pitch>
        <duration>48</duration>
        <type>quarter</type>
        <stem>up</stem>
        <lyric number="1">
          <syllabic>single</syllabic>
          <text>thu</text>
        </lyric>
        <lyric number="2">
          <syllabic>single</syllabic>
          <text>xa</text>
        </lyric>
      </note>
    </measure>
    <measure number="2">
      <note>
        <pitch>
          <step>E</step>
          <alter>-1</alter>
          <octave>4</octave>
        </pitch>
        <duration>96</duration>
        <type>half</type>
        <stem>up</stem>
        <lyric number="1">
          <syllabic>single</syllabic>
          <text>yang</text>
        </lyric>
        <lyric number="2">
          <syllabic>single</syllabic>
          <text>nao</text>
        </lyric>
      </note>
      <note>
        <pitch>
          <step>F</step>
          <octave>4</octave>
        </pitch>
        <duration>24</duration>
        <type>eighth</type>
        <stem>up</stem>
        <beam number="1">begin</beam>
        <lyric number="1">
          <syllabic>single</syllabic>
          <text>roi</text>
        </lyric>
        <lyric number="2">
          <syllabic>single</syllabic>
          <text>khong</text>
        </lyric>
      </note>
      <note>
        <pitch>
          <step>F</step>
          <alter>1</alter>
          <octave>4</octave>
        </pitch>
        <duration>24</duration>
        <type>eighth</type>
        <accidental>sharp</accidental>
        <stem>up</stem>
        <beam number="1">end</beam>
        <lyric number="1">
          <syllabic>single</syllabic>
          <text>trong</text>
        </lyric>
        <lyric number="2">
          <syllabic>single</syllabic>
          <text>nhung</text>
        </lyric>
      </note>
    </measure>
    <measure number="3">
      <note>
        <pitch>
          <step>G</step>
          <octave>4</octave>
        </pitch>
        <duration>144</duration>
        <tie type="start"/>
        <type>half</type>
        <dot/>
        <stem>up</stem>
        <notations>
          <tied type="start"/>
        </notations>
        <lyric number="1">
          <syllabic>single</syllabic>
          <text>n#ng</text>
        </lyric>
        <lyric number="2">
          <syllabic>single</syllabic>
          <text>nho</text>
        </lyric>
      </note>
    </measure>
    <measure number="4">
      <note>
        <pitch>
          <step>G</step>
          <octave>4</octave>
        </pitch>
        <duration>96</duration>
        <tie type="stop"/>
        <type>half</type>
        <stem>up</stem>
        <notations>
          <tied type="stop"/>
        </notations>
      </note>
      <note>
        <pitch>
          <step>A</step>
          <alter>-1</alter>
          <octave>4</octave>
        </pitch>
        <duration>48</duration>
        <type>quarter</type>
        <stem>up</stem>
        <lyric number="1">
          <syllabic>single</syllabic>
          <text>lang</text>
        </lyric>
        <lyric number="2">
          <syllabic>single</syllabic>
          <text>chitu</text>
        </lyric>
      </note>
    </measure>
    <measure number="5">
      <note>
        <pitch>
          <step>B</step>
          <alter>-1</alter>
          <octave>4</octave>
        </pitch>
        <duration>96</duration>
        <type>half</type>
        <stem>down</stem>
        <lyric number="1">
          <syllabic>single</syllabic>
          <text>im</text>
        </lyric>
        <lyric number="2">
          <syllabic>single</syllabic>
          <text>roi</text>
        </lyric>
      </note>
      <note>
        <pitch>
          <step>A</step>
          <alter>-1</alter>
          <octave>4</octave>
        </pitch>
        <duration>48</duration>
        <type>quarter</type>
        <stem>up</stem>
        <lyric number="1">
          <syllabic>single</syllabic>
          <text>ai</text>
        </lyric>
        <lyric number="2">
          <syllabic>single</syllabic>
          <text>xudng</text>
        </lyric>
      </note>
    </measure>
    <measure number="6">
      <note>
        <pitch>
          <step>G</step>
          <octave>4</octave>
        </pitch>
        <duration>96</duration>
        <type>half</type>
        <stem>up</stem>
        <lyric number="1">
          <syllabic>single</syllabic>
          <text>ngoi</text>
        </lyric>
        <lyric number="2">
          <syllabic>single</syllabic>
          <text>doi</text>
        </lyric>
      </note>
      <note>
        <pitch>
          <step>A</step>
          <alter>-1</alter>
          <octave>4</octave>
        </pitch>
        <duration>24</duration>
        <type>eighth</type>
        <stem>up</stem>
        <beam number="1">begin</beam>
        <lyric number="1">
          <syllabic>single</syllabic>
          <text>ben</text>
        </lyric>
        <lyric number="2">
          <syllabic>single</syllabic>
          <text>nghe</text>
        </lyric>
      </note>
      <note>
        <pitch>
          <step>A</step>
          <octave>4</octave>
        </pitch>
        <duration>24</duration>
        <type>eighth</type>
        <accidental>natural</accidental>
        <stem>up</stem>
        <beam number="1">end</beam>
        <lyric number="1">
          <syllabic>single</syllabic>
          <text>hién</text>
        </lyric>
        <lyric number="2">
          <syllabic>single</syllabic>
          <text>bo</text>
        </lyric>
      </note>
    </measure>
    <measure number="7">
      <note>
        <pitch>
          <step>B</step>
          <alter>-1</alter>
          <octave>4</octave>
        </pitch>
        <duration>144</duration>
        <tie type="start"/>
        <type>half</type>
        <dot/>
        <stem>down</stem>
        <notations>
          <tied type="start"/>
        </notations>
        <lyric number="1">
          <syllabic>single</syllabic>
          <text>vang</text>
        </lyric>
        <lyric number="2">
          <syllabic>single</syllabic>
          <text>vO”</text>
        </lyric>
      </note>
    </measure>
    <measure number="8">
      <note>
        <pitch>
          <step>B</step>
          <alter>-1</alter>
          <octave>4</octave>
        </pitch>
        <duration>144</duration>
        <tie type="stop"/>
        <type>half</type>
        <dot/>
        <stem>down</stem>
        <notations>
          <tied type="stop"/>
        </notations>
      </note>
    </measure>
    <measure number="9">
      <print new-system="yes"/>
      <note>
        <pitch>
          <step>E</step>
          <alter>-1</alter>
          <octave>5</octave>
        </pitch>
        <duration>96</duration>
        <type>half</type>
        <stem>down</stem>
        <lyric number="1">
          <syllabic>single</syllabic>
          <text>da</text>
        </lyric>
        <lyric number="2">
          <syllabic>single</syllabic>
          <text>bong</text>
        </lyric>
      </note>
      <note>
        <pitch>
          <step>D</step>
          <octave>5</octave>
        </pitch>
        <duration>48</duration>
        <type>quarter</type>
        <stem>down</stem>
        <lyric number="1">
          <syllabic>single</syllabic>
          <text>bao</text>
        </lyric>
        <lyric number="2">
          <syllabic>single</syllabic>
          <text>ail</text>
        </lyric>
      </note>
    </measure>
    <measure number="10">
      <note>
        <pitch>
          <step>C</step>
          <octave>5</octave>
        </pitch>
        <duration>96</duration>
        <type>half</type>
        <stem>down</stem>
        <lyric number="1">
          <syllabic>single</syllabic>
          <text>nam</text>
        </lyric>
        <lyric number="2">
          <syllabic>single</syllabic>
          <text>tim</text>
        </lyric>
      </note>
      <note>
        <pitch>
          <step>C</step>
          <octave>5</octave>
        </pitch>
        <duration>24</duration>
        <type>eighth</type>
        <stem>down</stem>
        <beam number="1">begin</beam>
        <notations>
          <slur placement="above" type="start" number="1"/>
        </notations>
        <lyric number="1">
          <syllabic>single</syllabic>
          <text>cach</text>
        </lyric>
        <lyric number="2">
          <syllabic>single</syllabic>
          <text>dén</text>
        </lyric>
      </note>
      <note>
        <pitch>
          <step>D</step>
          <octave>5</octave>
        </pitch>
        <duration>24</duration>
        <type>eighth</type>
        <stem>down</stem>
        <beam number="1">end</beam>
        <notations>
          <slur placement="above" type="stop" number="1"/>
        </notations>
      </note>
    </measure>
    <measure number="11">
      <note>
        <pitch>
          <step>C</step>
          <octave>5</octave>
        </pitch>
        <duration>24</duration>
        <type>eighth</type>
        <stem>down</stem>
        <beam number="1">begin</beam>
        <lyric number="1">
          <syllabic>single</syllabic>
          <text>ngan</text>
        </lyric>
        <lyric number="2">
          <syllabic>single</syllabic>
          <text>trong</text>
        </lyric>
      </note>
      <note>
        <pitch>
          <step>D</step>
          <octave>5</octave>
        </pitch>
        <duration>12</duration>
        <type>16th</type>
        <stem>down</stem>
        <beam number="1">continue</beam>
        <notations>
          <slur placement="above" type="start" number="1"/>
        </notations>
        <lyric number="1">
          <syllabic>single</syllabic>
          <text>I5i</text>
        </lyric>
        <lyric number="2">
          <syllabic>single</syllabic>
          <text>gidc</text>
        </lyric>
      </note>
      <note>
        <pitch>
          <step>C</step>
          <octave>5</octave>
        </pitch>
        <duration>12</duration>
        <type>16th</type>
        <stem>down</stem>
        <beam number="1">end</beam>
        <notations>
          <slur placement="above" type="stop" number="1"/>
        </notations>
      </note>
      <note>
        <pitch>
          <step>B</step>
          <octave>4</octave>
        </pitch>
        <duration>96</duration>
        <tie type="start"/>
        <type>half</type>
        <accidental>natural</accidental>
        <stem>down</stem>
        <notations>
          <tied type="start"/>
        </notations>
        <lyric number="1">
          <syllabic>single</syllabic>
          <text>ve</text>
        </lyric>
        <lyric number="2">
          <syllabic>single</syllabic>
          <text>moy</text>
        </lyric>
      </note>
    </measure>
    <measure number="12">
      <note>
        <pitch>
          <step>B</step>
          <octave>4</octave>
        </pitch>
        <duration>96</duration>
        <tie type="stop"/>
        <type>half</type>
        <accidental>natural</accidental>
        <stem>down</stem>
        <notations>
          <tied type="stop"/>
        </notations>
      </note>
      <note>
        <rest/>
        <duration>48</duration>
        <type>quarter</type>
      </note>
    </measure>
    <measure number="13">
      <note>
        <pitch>
          <step>D</step>
          <alter>-1</alter>
          <octave>5</octave>
        </pitch>
        <duration>96</duration>
        <type>half</type>
        <accidental>flat</accidental>
        <stem>down</stem>
        <lyric number="1">
          <syllabic>single</syllabic>
          <text>nhdr</text>
        </lyric>
        <lyric number="2">
          <syllabic>single</syllabic>
          <text>I5i</text>
        </lyric>
      </note>
      <note>
        <pitch>
          <step>C</step>
          <octave>5</octave>
        </pitch>
        <duration>48</duration>
        <type>quarter</type>
        <stem>down</stem>
        <lyric number="1">
          <syllabic>single</syllabic>
          <text>cau</text>
        </lyric>
        <lyric number="2">
          <syllabic>single</syllabic>
          <text>xXxura</text>
        </lyric>
      </note>
    </measure>
    <measure number="14">
      <note>
        <pitch>
          <step>B</step>
          <alter>-1</alter>
          <octave>4</octave>
        </pitch>
        <duration>96</duration>
        <type>half</type>
        <stem>down</stem>
        <lyric number="1">
          <syllabic>single</syllabic>
          <text>tho</text>
        </lyric>
        <lyric number="2">
          <syllabic>single</syllabic>
          <text>gi’y</text>
        </lyric>
      </note>
      <note>
        <pitch>
          <step>C</step>
          <octave>5</octave>
        </pitch>
        <duration>48</duration>
        <type>quarter</type>
        <stem>down</stem>
        <lyric number="1">
          <syllabic>single</syllabic>
          <text>dudi</text>
        </lyric>
        <lyric number="2">
          <syllabic>single</syllabic>
          <text>cach</text>
        </lyric>
      </note>
    </measure>
    <measure number="15">
      <note>
        <pitch>
          <step>B</step>
          <alter>-1</alter>
          <octave>4</octave>
        </pitch>
        <duration>24</duration>
        <type>eighth</type>
        <stem>down</stem>
        <beam number="1">begin</beam>
        <lyric number="1">
          <syllabic>single</syllabic>
          <text>trang</text>
        </lyric>
        <lyric number="2">
          <syllabic>single</syllabic>
          <text>chia</text>
        </lyric>
      </note>
      <note>
        <pitch>
          <step>C</step>
          <octave>5</octave>
        </pitch>
        <duration>12</duration>
        <type>16th</type>
        <stem>down</stem>
        <beam number="1">continue</beam>
        <notations>
          <slur placement="above" type="start" number="1"/>
        </notations>
        <lyric number="1">
          <syllabic>single</syllabic>
          <text>u’c</text>
        </lyric>
        <lyric number="2">
          <syllabic>single</syllabic>
          <text>doi</text>
        </lyric>
      </note>
      <note>
        <pitch>
          <step>B</step>
          <alter>-1</alter>
          <octave>4</octave>
        </pitch>
        <duration>12</duration>
        <type>16th</type>
        <stem>down</stem>
        <beam number="1">end</beam>
        <notations>
          <slur placement="above" type="stop" number="1"/>
        </notations>
      </note>
      <note>
        <pitch>
          <step>A</step>
          <alter>-1</alter>
          <octave>4</octave>
        </pitch>
        <duration>96</duration>
        <tie type="start"/>
        <type>half</type>
        <stem>up</stem>
        <notations>
          <tied type="start"/>
        </notations>
        <lyric number="1">
          <syllabic>single</syllabic>
          <text>the</text>
        </lyric>
        <lyric number="2">
          <syllabic>single</syllabic>
          <text>boy</text>
        </lyric>
      </note>
    </measure>
    <measure number="16">
      <note>
        <pitch>
          <step>A</step>
          <alter>-1</alter>
          <octave>4</octave>
        </pitch>
        <duration>144</duration>
        <tie type="stop"/>
        <type>half</type>
        <dot/>
        <stem>up</stem>
        <notations>
          <tied type="stop"/>
        </notations>
      </note>
    </measure>
    <measure number="17">
      <print new-system="yes"/>
      <note>
        <pitch>
          <step>G</step>
          <octave>4</octave>
        </pitch>
        <duration>96</duration>
        <type>half</type>
        <stem>up</stem>
        <lyric number="1">
          <syllabic>single</syllabic>
          <text>nudrc</text>
        </lyric>
        <lyric number="2">
          <syllabic>single</syllabic>
          <text>nhd</text>
        </lyric>
      </note>
      <note>
        <pitch>
          <step>F</step>
          <octave>4</octave>
        </pitch>
        <duration>48</duration>
        <type>quarter</type>
        <stem>up</stem>
        <lyric number="1">
          <syllabic>single</syllabic>
          <text>mit</text>
        </lyric>
        <lyric number="2">
          <syllabic>single</syllabic>
          <text>thuwong</text>
        </lyric>
      </note>
    </measure>
    <measure number="18">
      <note>
        <pitch>
          <step>E</step>
          <alter>-1</alter>
          <octave>4</octave>
        </pitch>
        <duration>96</duration>
        <type>half</type>
        <stem>up</stem>
        <lyric number="1">
          <syllabic>single</syllabic>
          <text>roi</text>
        </lyric>
        <lyric number="2">
          <syllabic>single</syllabic>
          <text>con</text>
        </lyric>
      </note>
      <note>
        <pitch>
          <step>F</step>
          <octave>4</octave>
        </pitch>
        <duration>48</duration>
        <type>quarter</type>
        <stem>up</stem>
        <lyric number="1">
          <syllabic>single</syllabic>
          <text>ti¢c</text>
        </lyric>
        <lyric number="2">
          <syllabic>single</syllabic>
          <text>bic’t</text>
        </lyric>
      </note>
    </measure>
    <measure number="19">
      <note>
        <pitch>
          <step>E</step>
          <alter>-1</alter>
          <octave>4</octave>
        </pitch>
        <duration>24</duration>
        <type>eighth</type>
        <stem>up</stem>
        <beam number="1">begin</beam>
        <lyric number="1">
          <syllabic>single</syllabic>
          <text>thuong</text>
        </lyric>
        <lyric number="2">
          <syllabic>single</syllabic>
          <text>ai</text>
        </lyric>
      </note>
      <note>
        <pitch>
          <step>F</step>
          <octave>4</octave>
        </pitch>
        <duration>12</duration>
        <type>16th</type>
        <stem>up</stem>
        <beam number="1">continue</beam>
        <notations>
          <slur placement="below" type="start" number="1"/>
        </notations>
        <lyric number="1">
          <syllabic>single</syllabic>
          <text>da</text>
        </lyric>
        <lyric number="2">
          <syllabic>single</syllabic>
          <text>mong</text>
        </lyric>
      </note>
      <note>
        <pitch>
          <step>E</step>
          <alter>-1</alter>
          <octave>4</octave>
        </pitch>
        <duration>12</duration>
        <type>16th</type>
        <stem>up</stem>
        <beam number="1">end</beam>
        <notations>
          <slur placement="below" type="stop" number="1"/>
        </notations>
      </note>
      <note>
        <pitch>
          <step>D</step>
          <octave>4</octave>
        </pitch>
        <duration>96</duration>
        <tie type="start"/>
        <type>half</type>
        <stem>up</stem>
        <notations>
          <tied type="start"/>
        </notations>
        <lyric number="1">
          <syllabic>single</syllabic>
          <text>nhicu</text>
        </lyric>
        <lyric number="2">
          <syllabic>single</syllabic>
          <text>choy</text>
        </lyric>
      </note>
    </measure>
    <measure number="20">
      <note>
        <pitch>
          <step>D</step>
          <octave>4</octave>
        </pitch>
        <duration>96</duration>
        <tie type="stop"/>
        <type>half</type>
        <stem>up</stem>
        <notations>
          <tied type="stop"/>
        </notations>
      </note>
      <note>
        <rest/>
        <duration>48</duration>
        <type>quarter</type>
      </note>
      <barline location="right">
        <bar-style>light-heavy</bar-style>
        <repeat direction="backward"/>
      </barline>
    </measure>
    <measure number="21">
      <attributes>
        <key>
          <fifths>0</fifths>
          <mode>major</mode>
        </key>
      </attributes>
      <barline location="left">
        <bar-style>heavy-light</bar-style>
        <repeat direction="forward"/>
      </barline>
      <note>
        <pitch>
          <step>G</step>
          <octave>4</octave>
        </pitch>
        <duration>96</duration>
        <type>half</type>
        <stem>up</stem>
        <lyric number="1">
          <syllabic>single</syllabic>
          <text>Co</text>
        </lyric>
        <lyric number="2">
          <syllabic>single</syllabic>
          <text/>
        </lyric>
      </note>
      <note>
        <pitch>
          <step>F</step>
          <octave>4</octave>
        </pitch>
        <duration>48</duration>
        <type>quarter</type>
        <stem>up</stem>
        <lyric number="1">
          <syllabic>single</syllabic>
          <text>cdlon</text>
        </lyric>
        <lyric number="2">
          <syllabic>single</syllabic>
          <text/>
        </lyric>
      </note>
    </measure>
    <measure number="22">
      <note>
        <pitch>
          <step>E</step>
          <octave>4</octave>
        </pitch>
        <duration>96</duration>
        <type>half</type>
        <stem>up</stem>
        <lyric number="1">
          <syllabic>single</syllabic>
          <text>mot</text>
        </lyric>
        <lyric number="2">
          <syllabic>single</syllabic>
          <text/>
        </lyric>
      </note>
      <note>
        <pitch>
          <step>F</step>
          <octave>4</octave>
        </pitch>
        <duration>48</duration>
        <type>quarter</type>
        <stem>up</stem>
        <lyric number="1">
          <syllabic>single</syllabic>
          <text>minh</text>
        </lyric>
        <lyric number="2">
          <syllabic>single</syllabic>
          <text/>
        </lyric>
      </note>
    </measure>
    <measure number="23">
      <note>
        <pitch>
          <step>G</step>
          <octave>4</octave>
        </pitch>
        <duration>144</duration>
        <tie type="start"/>
        <type>half</type>
        <dot/>
        <stem>up</stem>
        <notations>
          <tied type="start"/>
        </notations>
        <lyric number="1">
          <syllabic>single</syllabic>
          <text>ta</text>
        </lyric>
        <lyric number="2">
          <syllabic>single</syllabic>
          <text/>
        </lyric>
      </note>
    </measure>
    <measure number="24">
      <note>
        <pitch>
          <step>G</step>
          <octave>4</octave>
        </pitch>
        <duration>144</duration>
        <tie type="stop"/>
        <type>half</type>
        <dot/>
        <stem>up</stem>
        <notations>
          <tied type="stop"/>
        </notations>
      </note>
    </measure>
    <measure number="25">
      <print new-system="yes"/>
      <note>
        <pitch>
          <step>A</step>
          <octave>4</octave>
        </pitch>
        <duration>96</duration>
        <type>half</type>
        <stem>up</stem>
        <lyric number="1">
          <syllabic>single</syllabic>
          <text>nghe</text>
        </lyric>
      </note>
      <note>
        <pitch>
          <step>A</step>
          <octave>4</octave>
        </pitch>
        <duration>36</duration>
        <type>eighth</type>
        <dot/>
        <stem>down</stem>
        <beam number="1">begin</beam>
        <notations>
          <slur placement="above" type="start" number="1"/>
        </notations>
        <lyric number="1">
          <syllabic>single</syllabic>
          <text>long</text>
        </lyric>
      </note>
      <note>
        <pitch>
          <step>F</step>
          <octave>5</octave>
        </pitch>
        <duration>12</duration>
        <type>16th</type>
        <stem>down</stem>
        <beam number="1">end</beam>
        <notations>
          <slur placement="above" type="stop" number="1"/>
        </notations>
        <lyric number="1">
          <syllabic>single</syllabic>
          <text>gia</text>
        </lyric>
      </note>
    </measure>
    <measure number="26">
      <note>
        <pitch>
          <step>F</step>
          <octave>5</octave>
        </pitch>
        <duration>96</duration>
        <type>half</type>
        <stem>down</stem>
        <notations>
          <slur placement="above" type="start" number="1"/>
        </notations>
        <lyric number="1">
          <syllabic>single</syllabic>
          <text>budt</text>
        </lyric>
      </note>
      <note>
        <pitch>
          <step>A</step>
          <octave>4</octave>
        </pitch>
        <duration>48</duration>
        <type>quarter</type>
        <stem>up</stem>
        <notations>
          <slur placement="above" type="stop" number="1"/>
        </notations>
        <lyric number="1">
          <syllabic>single</syllabic>
          <text>khi</text>
        </lyric>
      </note>
    </measure>
    <measure number="27">
      <note>
        <pitch>
          <step>A</step>
          <octave>4</octave>
        </pitch>
        <duration>24</duration>
        <type>eighth</type>
        <stem>up</stem>
        <beam number="1">begin</beam>
        <lyric number="1">
          <syllabic>single</syllabic>
          <text>dem</text>
        </lyric>
      </note>
      <note>
        <pitch>
          <step>B</step>
          <octave>4</octave>
        </pitch>
        <duration>12</duration>
        <type>16th</type>
        <stem>up</stem>
        <beam number="1">continue</beam>
        <notations>
          <slur placement="below" type="start" number="1"/>
        </notations>
        <lyric number="1">
          <syllabic>single</syllabic>
          <text>gio</text>
        </lyric>
      </note>
      <note>
        <pitch>
          <step>A</step>
          <octave>4</octave>
        </pitch>
        <duration>12</duration>
        <type>16th</type>
        <stem>up</stem>
        <beam number="1">end</beam>
        <notations>
          <slur placement="below" type="stop" number="1"/>
        </notations>
        <lyric number="1">
          <syllabic>single</syllabic>
          <text>mu’a</text>
        </lyric>
      </note>
      <note>
        <pitch>
          <step>G</step>
          <octave>4</octave>
        </pitch>
        <duration>96</duration>
        <tie type="start"/>
        <type>half</type>
        <stem>up</stem>
        <notations>
          <tied type="start"/>
        </notations>
        <lyric number="1">
          <syllabic>single</syllabic>
          <text>ve</text>
        </lyric>
      </note>
    </measure>
    <measure number="28">
      <note>
        <pitch>
          <step>G</step>
          <octave>4</octave>
        </pitch>
        <duration>96</duration>
        <tie type="stop"/>
        <type>half</type>
        <stem>up</stem>
        <notations>
          <tied type="stop"/>
        </notations>
      </note>
      <note>
        <rest/>
        <duration>48</duration>
        <type>quarter</type>
      </note>
    </measure>
    <measure number="29">
      <note>
        <pitch>
          <step>C</step>
          <octave>5</octave>
        </pitch>
        <duration>144</duration>
        <type>half</type>
        <dot/>
        <stem>down</stem>
        <lyric number="1">
          <syllabic>single</syllabic>
          <text>trai</text>
        </lyric>
      </note>
    </measure>
    <measure number="30">
      <note>
        <pitch>
          <step>B</step>
          <octave>4</octave>
        </pitch>
        <duration>96</duration>
        <type>half</type>
        <stem>down</stem>
        <lyric number="1">
          <syllabic>single</syllabic>
          <text>tim</text>
        </lyric>
      </note>
      <note>
        <pitch>
          <step>F</step>
          <octave>4</octave>
        </pitch>
        <duration>48</duration>
        <type>quarter</type>
        <stem>up</stem>
        <lyric number="1">
          <syllabic>single</syllabic>
          <text>con</text>
        </lyric>
      </note>
    </measure>
    <measure number="31">
      <note>
        <pitch>
          <step>A</step>
          <octave>4</octave>
        </pitch>
        <duration>24</duration>
        <type>eighth</type>
        <stem>up</stem>
        <beam number="1">begin</beam>
        <lyric number="1">
          <syllabic>single</syllabic>
          <text>say</text>
        </lyric>
      </note>
      <note>
        <pitch>
          <step>B</step>
          <octave>4</octave>
        </pitch>
        <duration>12</duration>
        <type>16th</type>
        <stem>up</stem>
        <beam number="1">continue</beam>
        <notations>
          <slur placement="below" type="start" number="1"/>
        </notations>
        <lyric number="1">
          <syllabic>single</syllabic>
          <text>khtic</text>
        </lyric>
      </note>
      <note>
        <pitch>
          <step>A</step>
          <octave>4</octave>
        </pitch>
        <duration>12</duration>
        <type>16th</type>
        <stem>up</stem>
        <beam number="1">end</beam>
        <notations>
          <slur placement="below" type="stop" number="1"/>
        </notations>
        <lyric number="1">
          <syllabic>single</syllabic>
          <text>cdlam</text>
        </lyric>
      </note>
      <note>
        <pitch>
          <step>G</step>
          <octave>4</octave>
        </pitch>
        <duration>96</duration>
        <tie type="start"/>
        <type>half</type>
        <stem>up</stem>
        <notations>
          <tied type="start"/>
        </notations>
        <lyric number="1">
          <syllabic>single</syllabic>
          <text>moe</text>
        </lyric>
      </note>
    </measure>
    <measure number="32">
      <note>
        <pitch>
          <step>G</step>
          <octave>4</octave>
        </pitch>
        <duration>96</duration>
        <tie type="stop"/>
        <type>half</type>
        <stem>up</stem>
        <notations>
          <tied type="stop"/>
        </notations>
      </note>
      <note>
        <rest/>
        <duration>48</duration>
        <type>quarter</type>
      </note>
    </measure>
    <measure number="33">
      <print new-system="yes"/>
      <note>
        <pitch>
          <step>F</step>
          <octave>4</octave>
        </pitch>
        <duration>96</duration>
        <type>half</type>
        <stem>up</stem>
        <lyric number="1">
          <syllabic>single</syllabic>
          <text>cho</text>
        </lyric>
      </note>
      <note>
        <pitch>
          <step>D</step>
          <octave>4</octave>
        </pitch>
        <duration>16</duration>
        <type>eighth</type>
        <time-modification>
          <actual-notes>3</actual-notes>
          <normal-notes>2</normal-notes>
        </time-modification>
        <stem>up</stem>
        <beam number="1">begin</beam>
        <notations>
          <tuplet number="1" type="start"/>
        </notations>
        <lyric number="1">
          <syllabic>single</syllabic>
          <text>tinh</text>
        </lyric>
      </note>
      <note>
        <pitch>
          <step>E</step>
          <octave>4</octave>
        </pitch>
        <duration>16</duration>
        <type>eighth</type>
        <time-modification>
          <actual-notes>3</actual-notes>
          <normal-notes>2</normal-notes>
        </time-modification>
        <stem>up</stem>
        <beam number="1">continue</beam>
        <lyric number="1">
          <syllabic>single</syllabic>
          <text>nay</text>
        </lyric>
      </note>
      <note>
        <pitch>
          <step>F</step>
          <octave>4</octave>
        </pitch>
        <duration>16</duration>
        <type>eighth</type>
        <time-modification>
          <actual-notes>3</actual-notes>
          <normal-notes>2</normal-notes>
        </time-modification>
        <stem>up</stem>
        <beam number="1">end</beam>
        <notations>
          <tuplet number="1" type="stop"/>
        </notations>
        <lyric number="1">
          <syllabic>single</syllabic>
          <text>lang</text>
        </lyric>
      </note>
    </measure>
    <measure number="34">
      <note>
        <pitch>
          <step>E</step>
          <octave>4</octave>
        </pitch>
        <duration>96</duration>
        <type>half</type>
        <stem>up</stem>
        <lyric number="1">
          <syllabic>single</syllabic>
          <text>quen</text>
        </lyric>
      </note>
      <note>
        <pitch>
          <step>D</step>
          <octave>4</octave>
        </pitch>
        <duration>48</duration>
        <type>quarter</type>
        <stem>up</stem>
        <lyric number="1">
          <syllabic>single</syllabic>
          <text>bén</text>
        </lyric>
      </note>
    </measure>
    <measure number="35">
      <note>
        <pitch>
          <step>D</step>
          <octave>4</octave>
        </pitch>
        <duration>24</duration>
        <type>eighth</type>
        <stem>up</stem>
        <beam number="1">begin</beam>
        <lyric number="1">
          <syllabic>single</syllabic>
          <text>kia</text>
        </lyric>
      </note>
      <note>
        <pitch>
          <step>E</step>
          <octave>4</octave>
        </pitch>
        <duration>12</duration>
        <type>16th</type>
        <stem>up</stem>
        <beam number="1">continue</beam>
        <notations>
          <slur placement="below" type="start" number="1"/>
        </notations>
        <lyric number="1">
          <syllabic>single</syllabic>
          <text>chon</text>
        </lyric>
      </note>
      <note>
        <pitch>
          <step>D</step>
          <octave>4</octave>
        </pitch>
        <duration>12</duration>
        <type>16th</type>
        <stem>up</stem>
        <beam number="1">end</beam>
        <notations>
          <slur placement="below" type="stop" number="1"/>
        </notations>
        <lyric number="1">
          <syllabic>single</syllabic>
          <text>thien</text>
        </lyric>
      </note>
      <note>
        <pitch>
          <step>C</step>
          <octave>4</octave>
        </pitch>
        <duration>96</duration>
        <tie type="start"/>
        <type>half</type>
        <stem>up</stem>
        <notations>
          <tied type="start"/>
        </notations>
        <lyric number="1">
          <syllabic>single</syllabic>
          <text>duong...</text>
        </lyric>
      </note>
    </measure>
    <measure number="36">
      <note>
        <pitch>
          <step>C</step>
          <octave>4</octave>
        </pitch>
        <duration>96</duration>
        <tie type="stop"/>
        <type>half</type>
        <stem>up</stem>
        <notations>
          <tied type="stop"/>
        </notations>
      </note>
      <note>
        <rest/>
        <duration>48</duration>
        <type>quarter</type>
      </note>
      <barline location="right">
        <bar-style>light-heavy</bar-style>
        <repeat direction="backward"/>
      </barline>
    </measure>
    <measure number="37">
      <barline location="left">
        <bar-style>heavy-light</bar-style>
        <repeat direction="forward"/>
      </barline>
      <note>
        <pitch>
          <step>C</step>
          <octave>4</octave>
        </pitch>
        <duration>144</duration>
        <type>half</type>
        <dot/>
        <stem>up</stem>
        <lyric number="1">
          <syllabic>single</syllabic>
          <text>Nguoi</text>
        </lyric>
      </note>
    </measure>
    <measure number="38">
      <note>
        <pitch>
          <step>D</step>
          <octave>4</octave>
        </pitch>
        <duration>48</duration>
        <type>quarter</type>
        <stem>up</stem>
        <lyric number="1">
          <syllabic>single</syllabic>
          <text>ra</text>
        </lyric>
      </note>
      <note>
        <pitch>
          <step>E</step>
          <alter>-1</alter>
          <octave>4</octave>
        </pitch>
        <duration>48</duration>
        <type>quarter</type>
        <accidental>flat</accidental>
        <stem>up</stem>
        <lyric number="1">
          <syllabic>single</syllabic>
          <text>dli</text>
        </lyric>
      </note>
      <note>
        <pitch>
          <step>F</step>
          <octave>4</octave>
        </pitch>
        <duration>16</duration>
        <type>eighth</type>
        <time-modification>
          <actual-notes>3</actual-notes>
          <normal-notes>2</normal-notes>
        </time-modification>
        <stem>up</stem>
        <beam number="1">begin</beam>
        <notations>
          <slur placement="below" type="start" number="1"/>
          <tuplet number="1" type="start"/>
        </notations>
        <lyric number="1">
          <syllabic>single</syllabic>
          <text>co...</text>
        </lyric>
      </note>
      <note>
        <pitch>
          <step>E</step>
          <alter>-1</alter>
          <octave>4</octave>
        </pitch>
        <duration>16</duration>
        <type>eighth</type>
        <time-modification>
          <actual-notes>3</actual-notes>
          <normal-notes>2</normal-notes>
        </time-modification>
        <stem>up</stem>
        <beam number="1">continue</beam>
        <notations>
          <slur placement="below" type="continue" number="1"/>
        </notations>
      </note>
      <note>
        <pitch>
          <step>F</step>
          <octave>4</octave>
        </pitch>
        <duration>16</duration>
        <type>eighth</type>
        <time-modification>
          <actual-notes>3</actual-notes>
          <normal-notes>2</normal-notes>
        </time-modification>
        <stem>up</stem>
        <beam number="1">end</beam>
        <notations>
          <slur placement="below" type="stop" number="1"/>
          <tuplet number="1" type="stop"/>
        </notations>
      </note>
    </measure>
    <measure number="39">
      <note>
        <pitch>
          <step>G</step>
          <octave>4</octave>
        </pitch>
        <duration>144</duration>
        <tie type="start"/>
        <type>half</type>
        <dot/>
        <stem>up</stem>
        <notations>
          <tied type="start"/>
        </notations>
        <lyric number="1">
          <syllabic>single</syllabic>
          <text>nhdy</text>
        </lyric>
      </note>
    </measure>
    <measure number="40">
      <note>
        <pitch>
          <step>G</step>
          <octave>4</octave>
        </pitch>
        <duration>144</duration>
        <tie type="stop"/>
        <type>half</type>
        <dot/>
        <stem>up</stem>
        <notations>
          <tied type="stop"/>
        </notations>
      </note>
    </measure>
    <measure number="41">
      <print new-system="yes"/>
      <note>
        <pitch>
          <step>B</step>
          <octave>4</octave>
        </pitch>
        <duration>144</duration>
        <type>half</type>
        <dot/>
        <stem>down</stem>
        <lyric number="1">
          <syllabic>single</syllabic>
          <text>ti€ng</text>
        </lyric>
      </note>
    </measure>
    <measure number="42">
      <note>
        <pitch>
          <step>A</step>
          <octave>4</octave>
        </pitch>
        <duration>48</duration>
        <type>quarter</type>
        <stem>up</stem>
        <lyric number="1">
          <syllabic>single</syllabic>
          <text>tho</text>
        </lyric>
      </note>
      <note>
        <pitch>
          <step>G</step>
          <octave>4</octave>
        </pitch>
        <duration>48</duration>
        <type>quarter</type>
        <stem>up</stem>
        <lyric number="1">
          <syllabic>single</syllabic>
          <text>roi</text>
        </lyric>
      </note>
      <note>
        <pitch>
          <step>F</step>
          <octave>4</octave>
        </pitch>
        <duration>48</duration>
        <type>quarter</type>
        <stem>up</stem>
        <lyric number="1">
          <syllabic>single</syllabic>
          <text>bén</text>
        </lyric>
      </note>
    </measure>
    <measure number="43">
      <note>
        <pitch>
          <step>E</step>
          <octave>4</octave>
        </pitch>
        <duration>144</duration>
        <tie type="start"/>
        <type>half</type>
        <dot/>
        <stem>up</stem>
        <notations>
          <tied type="start"/>
        </notations>
        <lyric number="1">
          <syllabic>single</syllabic>
          <text>ho</text>
        </lyric>
      </note>
    </measure>
    <measure number="44">
      <note>
        <pitch>
          <step>E</step>
          <octave>4</octave>
        </pitch>
        <duration>144</duration>
        <tie type="stop"/>
        <type>half</type>
        <dot/>
        <stem>up</stem>
        <notations>
          <tied type="stop"/>
        </notations>
      </note>
    </measure>
    <measure number="45">
      <note>
        <pitch>
          <step>C</step>
          <octave>4</octave>
        </pitch>
        <duration>144</duration>
        <type>half</type>
        <dot/>
        <stem>up</stem>
        <lyric number="1">
          <syllabic>single</syllabic>
          <text>tinh</text>
        </lyric>
      </note>
    </measure>
    <measure number="46">
      <note>
        <pitch>
          <step>D</step>
          <octave>4</octave>
        </pitch>
        <duration>48</duration>
        <type>quarter</type>
        <stem>up</stem>
        <lyric number="1">
          <syllabic>single</syllabic>
          <text>con</text>
        </lyric>
      </note>
      <note>
        <pitch>
          <step>E</step>
          <alter>-1</alter>
          <octave>4</octave>
        </pitch>
        <duration>48</duration>
        <type>quarter</type>
        <accidental>flat</accidental>
        <stem>up</stem>
        <lyric number="1">
          <syllabic>single</syllabic>
          <text>vuong</text>
        </lyric>
      </note>
      <note>
        <pitch>
          <step>F</step>
          <octave>4</octave>
        </pitch>
        <duration>16</duration>
        <type>eighth</type>
        <time-modification>
          <actual-notes>3</actual-notes>
          <normal-notes>2</normal-notes>
        </time-modification>
        <stem>up</stem>
        <beam number="1">begin</beam>
        <notations>
          <slur placement="below" type="start" number="1"/>
          <tuplet number="1" type="start"/>
        </notations>
        <lyric number="1">
          <syllabic>single</syllabic>
          <text>bén...</text>
        </lyric>
      </note>
      <note>
        <pitch>
          <step>E</step>
          <alter>-1</alter>
          <octave>4</octave>
        </pitch>
        <duration>16</duration>
        <type>eighth</type>
        <time-modification>
          <actual-notes>3</actual-notes>
          <normal-notes>2</normal-notes>
        </time-modification>
        <stem>up</stem>
        <beam number="1">continue</beam>
        <notations>
          <slur placement="below" type="continue" number="1"/>
        </notations>
      </note>
      <note>
        <pitch>
          <step>F</step>
          <octave>4</octave>
        </pitch>
        <duration>16</duration>
        <type>eighth</type>
        <time-modification>
          <actual-notes>3</actual-notes>
          <normal-notes>2</normal-notes>
        </time-modification>
        <stem>up</stem>
        <beam number="1">end</beam>
        <notations>
          <slur placement="below" type="stop" number="1"/>
          <tuplet number="1" type="stop"/>
        </notations>
      </note>
    </measure>
    <measure number="47">
      <note>
        <pitch>
          <step>G</step>
          <octave>4</octave>
        </pitch>
        <duration>144</duration>
        <tie type="start"/>
        <type>half</type>
        <dot/>
        <stem>up</stem>
        <notations>
          <tied type="start"/>
        </notations>
        <lyric number="1">
          <syllabic>single</syllabic>
          <text>gi</text>
        </lyric>
      </note>
    </measure>
    <measure number="48">
      <note>
        <pitch>
          <step>G</step>
          <octave>4</octave>
        </pitch>
        <duration>144</duration>
        <tie type="stop"/>
        <type>half</type>
        <dot/>
        <stem>up</stem>
        <notations>
          <tied type="stop"/>
        </notations>
      </note>
    </measure>
    <measure number="49">
      <note>
        <pitch>
          <step>B</step>
          <octave>4</octave>
        </pitch>
        <duration>144</duration>
        <type>half</type>
        <dot/>
        <stem>down</stem>
      </note>
    </measure>
    <measure number="50">
      <note>
        <pitch>
          <step>A</step>
          <octave>4</octave>
        </pitch>
        <duration>48</duration>
        <type>quarter</type>
        <stem>up</stem>
        <lyric number="1">
          <syllabic>single</syllabic>
          <text>trang</text>
        </lyric>
      </note>
      <note>
        <pitch>
          <step>G</step>
          <octave>4</octave>
        </pitch>
        <duration>48</duration>
        <type>quarter</type>
        <stem>up</stem>
        <lyric number="1">
          <syllabic>single</syllabic>
          <text>xura</text>
        </lyric>
      </note>
      <note>
        <pitch>
          <step>F</step>
          <octave>4</octave>
        </pitch>
        <duration>48</duration>
        <type>quarter</type>
        <stem>up</stem>
        <lyric number="1">
          <syllabic>single</syllabic>
          <text>mong</text>
        </lyric>
      </note>
    </measure>
    <measure number="51">
      <print new-system="yes"/>
      <note>
        <pitch>
          <step>E</step>
          <octave>4</octave>
        </pitch>
        <duration>144</duration>
        <tie type="start"/>
        <type>half</type>
        <dot/>
        <stem>up</stem>
        <notations>
          <tied type="start"/>
        </notations>
        <lyric number="1">
          <syllabic>single</syllabic>
          <text>cho...</text>
        </lyric>
      </note>
    </measure>
    <measure number="52">
      <note>
        <pitch>
          <step>E</step>
          <octave>4</octave>
        </pitch>
        <duration>144</duration>
        <tie type="start"/>
        <tie type="stop"/>
        <type>half</type>
        <dot/>
        <stem>up</stem>
        <notations>
          <tied type="start"/>
          <tied type="stop"/>
        </notations>
      </note>
    </measure>
    <measure number="53">
      <note>
        <pitch>
          <step>E</step>
          <octave>4</octave>
        </pitch>
        <duration>144</duration>
        <tie type="start"/>
        <tie type="stop"/>
        <type>half</type>
        <dot/>
        <stem>up</stem>
        <notations>
          <tied type="start"/>
          <tied type="stop"/>
        </notations>
      </note>
    </measure>
    <measure number="54">
      <note>
        <pitch>
          <step>E</step>
          <octave>4</octave>
        </pitch>
        <duration>144</duration>
        <tie type="start"/>
        <tie type="stop"/>
        <type>half</type>
        <dot/>
        <stem>up</stem>
        <notations>
          <tied type="start"/>
          <tied type="stop"/>
        </notations>
      </note>
    </measure>
    <measure number="55">
      <note>
        <pitch>
          <step>E</step>
          <octave>4</octave>
        </pitch>
        <duration>144</duration>
        <tie type="stop"/>
        <type>half</type>
        <dot/>
        <stem>up</stem>
        <notations>
          <tied type="stop"/>
        </notations>
      </note>
      <barline location="right">
        <bar-style>light-heavy</bar-style>
        <repeat direction="backward"/>
      </barline>
    </measure>
  </part>
</score-partwise>
